<?xml version="1.0" encoding="UTF-8"?>
<svg id="_Слой_1" data-name="Слой_1" xmlns="http://www.w3.org/2000/svg" version="1.1" viewBox="0 0 595.28 595.28">
  <!-- Generator: Adobe Illustrator 29.8.1, SVG Export Plug-In . SVG Version: 2.1.1 Build 2)  -->
  <defs>
    <style>
      .st0 {
        fill: #fff;
      }

      .st1 {
        fill: none;
        stroke: #fff;
        stroke-linecap: round;
        stroke-width: 3px;
      }

      .st1, .st2 {
        stroke-miterlimit: 10;
      }

      .st2 {
        fill: #350505;
        stroke: #1d1d1b;
      }
    </style>
  </defs>
  <rect class="st2" width="595.28" height="595.28"/>
  <g id="_символл" data-name="символл">
    <path class="st1" d="M351.8,54.23c-25.19-15.66-65.16-12.91-83.94,5.62-40.32,39.78-3.15,148.72,29.36,157.35,15.71,4.17,64.89-21.4,75.63-60.73,7.44-27.22,18.98-77.35-21.05-102.24Z"/>
    <path class="st1" d="M287.47,162.93c-5.75,8.83-17.04,8.97-23.07,2.21-6.43-7.21-7.37-26.33-1.73-34.31,5.23-7.39,18.7-6.9,23.58-2.99,8.56,6.86,8.86,23.38,1.22,35.09Z"/>
    <path class="st1" d="M344.22,131.21c-5.95-9.67-22.69-9.72-29.08-2.43-6.81,7.77-6.41,28.29-.58,37.04,5.41,8.1,15.84,8.16,21.12,4.16,9.62-7.28,16.43-25.93,8.53-38.77Z"/>
    <path class="st1" d="M380.38,123.18c4.42-4.69,19.96-9.02,22.02,4.93,2.28,15.4-22.33,40.7-31.3,33.74"/>
    <path class="st1" d="M233.62,455.36c-2.44,14.57-7.49,26.26-16.5,33.42-12.23,9.71-37.91,10.45-44.6,18.95-4.53,5.75-3.41,21.63,6.77,28.96,10.25,7.39,31.3,6.19,44.37-1.29"/>
    <path class="st1" d="M280.67,233.6c-1.49-3.38-4-6.47-10.33-10.45-13.09-8.23-30.61-4.57-36.99,0-23.36,16.74-11.72,78.01-3.48,138.5"/>
    <path class="st1" d="M343.36,359.56c-2.69-29.12-7.07-61.5-13.49-96.27"/>
    <path class="st1" d="M343.36,359.56"/>
    <path class="st1" d="M345.79,457.69"/>
    <path class="st1" d="M280.93,466.48c-3.21,14.37-9.05,25.13-18.84,30.35-13.98,7.45-30.18,8.79-36.38,18.58-3.68,5.81-4.64,20.19,1.3,26.33,15.17,15.66,46.75,8.92,64.06,1.53.16-.07.57-.24,1.14-.49,0,0,23.7-10.52,42.72-35.99,5.27-7.07,9.17-24.12,10.87-49.09"/>
    <path class="st1" d="M280.93,466.48"/>
    <path class="st1" d="M284.26,425.34"/>
    <path class="st1" d="M281.9,381.61"/>
    <path class="st1" d="M374.75,313.63c-4.01-17.59-10.44-41.62-15.51-54.37-4.35-10.95-14.85-29.54-30.3-36.1-13.32-5.66-29.11-4.05-36.99,0-27.96,14.36-15.78,87.33-10.04,155.91"/>
    <path class="st1" d="M388.44,421.86c0-13.16-.72-21.84-2.01-35.83"/>
    <path class="st0" d="M283.96,425.47c-18.74,0-35.24-3.31-49.32-9.92-23.07-10.83-24.97-28.89-24.72-36.16.34-9.91,5.04-18.83,11.17-21.2,3.5-1.36,7.06-.44,10,2.58,17.58,18,48.91,22.93,83.79,13.2,33.29-9.29,71.73-57.6,63.97-92.44-.18-.81.33-1.61,1.14-1.79.81-.18,1.61.33,1.79,1.14,3.81,17.11-2.47,38.44-17.23,58.52-13.6,18.49-32.32,32.85-48.86,37.46-35.96,10.03-68.38,4.8-86.74-14-2.12-2.17-4.4-2.8-6.77-1.88-4.98,1.93-8.95,9.88-9.25,18.51-.23,6.67,1.55,23.27,23,33.34,22.2,10.42,50.7,12.41,84.71,5.9,55.86-10.69,92.93-58.95,100.68-101.11,6.54-35.54-.72-64.51-9.68-79.77-10.14-17.25-21.61-23.15-30.84-27.89-3.93-2.02-7.33-3.76-9.95-6.08-5.9-5.21-12.9-13.86-13.25-21.13-.04-.83.6-1.53,1.43-1.57.82-.02,1.53.6,1.57,1.43.28,5.93,6.35,13.83,12.24,19.03,2.34,2.07,5.58,3.73,9.34,5.66,9.06,4.66,21.47,11.03,32.05,29.04,9.24,15.72,16.73,45.48,10.05,81.83-4,21.78-15.92,44.82-32.69,63.22-19.36,21.25-43.7,35.18-70.38,40.29-13.23,2.53-25.66,3.79-37.23,3.8Z"/>
    <path class="st1" d="M411.64,349.71s11.89,76.47,9.29,97.86c-4.48,36.82-17.39,50.15-34.1,59.71-22.63,12.94-51.9-.5-51.9-.5"/>
    <path class="st1" d="M219.57,268.93c-25.22,57.5-34.22,119.46-15.75,153.59,9.25,17.1,35.49,39.97,77.2,43.6,35.93,3.13,86.12-12.16,87.74-35.36,1.76-25.24-14.6-22.18-14.6-22.18"/>
    <path class="st1" d="M219.57,268.93"/>
    <path class="st1" d="M250.24,217.63"/>
    <path class="st1" d="M270.87,195.47c-1.71,10.27-12.71,20.24-20.63,22.16"/>
  </g>
</svg>